<svg id="Layer_0_Image" data-name="Layer 0 Image" xmlns="http://www.w3.org/2000/svg" viewBox="0 0 364.13 346.28"><title>thiesing-og-logo-black</title><path d="M391.36,91.38c-.06-5.21-.12-10.6-.63-15.88-.18-1.85-2.61-4.73-4.48-4.76-9.16-.12-18.46,0-27.47.09l-10,.11c-5.38,0-9.13,2.53-11.13,7.4l-32.54,74c-2.14,5.1-4.21,10.32-6.22,15.37-2.16,5.45-4.4,11.09-6.72,16.57-3,7-6.11,14-9.16,20.77-2.2,4.89-4.47,10-6.66,15q-3.62,8.3-7.25,16.57c-7.46,17-15.17,34.57-22.4,52-3.06,7.4-6,14.27-8.87,20.91-4.3,10-8.36,19.46-12.71,30.41-.59,1.49-2.46,3.24-3.57,3.35a92.91,92.91,0,0,1-10.15.25c-1.83,0-3.72,0-5.58,0-2.8.08-4.69-.52-6-3.67-3.59-8.55-7.35-16.09-11-23.39-3.29-6.62-6.7-13.47-10-21.13-4.8-11.08-9.83-22.74-15.35-35.64q-3.84-9-7.62-18c-5.25-12.42-10.68-25.26-16.29-37.78-4.65-10.34-9.63-20.73-14.45-30.77-3.23-6.74-6.57-13.71-9.78-20.6-4.77-10.25-9.58-20.69-14.23-30.79-5.46-11.84-11.1-24.08-16.71-36.09A5.59,5.59,0,0,0,79.7,83L31.06,86.5c-2.62.2-3.9,1.73-3.8,4.56.21,6.36.68,11.38,1.22,17.19.11,1.23.23,2.5.35,3.83s1.85,3.3,3.18,3.33h1.37a127,127,0,0,0,15.56-.7c9.76-1.23,15.68,1.32,19.81,8.54C74.9,134,79.93,143.1,84.49,152.58c6.09,12.64,12,25.64,17.65,38.22q2.34,5.17,4.69,10.35l2.38,5.24c8.86,19.51,18,39.67,26.88,59.57,3.76,8.44,7.55,16.15,11.21,23.61,4.34,8.87,8.84,18,13.18,28.22,3.49,8.2,6.91,16.61,10.21,24.74,2.71,6.65,5.5,13.53,8.33,20.27l.15.36c1.17,2.8,2.63,6.29,5.1,7.29,3.29,1.34,7,1.47,10.66,1.6l1.87.07c12.8.57,24.23,1,34.94,1.18a17,17,0,0,1,2.37.31,17.62,17.62,0,0,0,3,.35,4.94,4.94,0,0,0,5-3.27c3.66-8.63,7.24-17.46,10.71-26,3-7.31,6-14.87,9.13-22.27,3.7-8.82,7.55-16.72,11.27-24.37s7.43-15.26,11.08-23.91c4.34-10.27,8.68-20.74,12.89-30.87q5-12,10-24c4.3-10.23,8.73-20.61,13-30.65l4.79-11.21c4.79-11.25,9.75-22.88,14.68-34.29,3.58-8.28,7.19-16.43,10.58-24.06.39-.86.76-1.74,1.13-2.63,2.37-5.6,4.82-11.38,10.62-13.43,6.13-2.17,13-2.68,19.69-3.19l.76,0c5.75-.44,9-2.9,9-6.75Z" transform="translate(-27.25 -27.68)"/><path d="M93.21,60.2c.46,6.69.94,13.61,1.5,20.41.14,1.68,2.06,4.17,3.66,4.28,6.59.45,13.13.59,19.43.41,1.77,0,4-2.18,4.41-3.8.33-1.22.58-2.47.82-3.67.85-4.22,1.65-8.21,5.4-11,6.49-4.77,14.33-5.37,21.9-6l1.36-.1c9.17-.72,18.55-.93,27.62-1.13q5.12-.1,10.23-.25c2-.06,4,0,5.1,1a4.4,4.4,0,0,1,1,3.27c.06,12.76.18,25.74.3,38.28l.21,24.1c.09,10.29.18,20.94.31,31.41.06,4.8.16,9.61.27,14.41.18,8.27.37,16.82.31,25.22-.05,7.48-.31,15.75-.56,23.74-.33,10.51-.67,21.39-.57,31.16.06,5.8-3.31,11.36-7.85,12.93a9.19,9.19,0,0,0-5.3,5.78,40.4,40.4,0,0,0-.32,11.72c.13,1.61,2.42,3.54,3.94,3.69,2.8.27,5.65.29,8.4.32,1.44,0,2.87,0,4.31.07,2.59.09,5.19.21,7.78.33l5.56.25,5.34.22c5.55.25,11.29.5,16.94.53h0c1.62,0,5.77-.78,6.22-2.68a42.22,42.22,0,0,0,.71-9.66v-1.39c0-3,0-6.66-4.93-7.62-8-1.56-11.53-5.36-12.15-13.1-.7-8.66-.6-18.52-.51-28,0-3.36.07-6.66.06-9.79,0-5.75.06-11.61.13-17.28.07-6,.15-12.15.13-18.23-.06-17.27-.18-34.82-.3-51.79Q224,117.2,224,106.13c0-3.95,0-7.9-.06-11.86,0-10-.07-20.38-.3-30.57,0-1.78.25-3,.88-3.59s1.65-.88,3.28-.87q10.23.1,20.47.18c10.63.07,21.61.16,32.42.32,9,.13,19.67,9.84,21.12,19.25.31,2,3.38,4,5.45,4.44a21.05,21.05,0,0,0,5,.34,21.78,21.78,0,0,1,4.08.19,8.33,8.33,0,0,0,6.57-1.55,7.89,7.89,0,0,0,3-5.7c.19-2.39.27-4.93.24-7.77l0-2.47c-.12-11.42-.24-23.23-.57-34.84a5,5,0,0,0-1.68-3,3,3,0,0,0-2-1c-4.09.17-8.23.46-12.23.75-4.66.34-9.48.68-14.22.82-9.68.27-19.53.43-29.06.58-9.88.16-20.1.33-30.14.62-8.46.24-17,.62-25.35,1-13.29.59-27,1.2-40.53,1.26L102.83,32q-1.26,0-2.52,0l-2.09,0a6.42,6.42,0,0,0-6.58,7C92.23,46.06,92.73,53.25,93.21,60.2Z" transform="translate(-27.25 -27.68)"/><path d="M348.41,263.36a123.68,123.68,0,0,0-2.12-18.88c-1.48-6.93-6.82-11.51-14.29-12.24-8.28-.81-17.85,2.17-20.12,9.45a74,74,0,0,0-3.22,21.49l0,4c-.07,12.52-.15,25.46,1.8,37.95,1.14,7.34,4.94,12.59,10.71,14.79A17.35,17.35,0,0,0,327.3,321a20.44,20.44,0,0,0,12.81-4.58c7.27-6,8.47-14.68,9.28-25.43a6,6,0,0,0,0-1h0c-.06-1.75-.11-3.71-.18-5.82C349.05,278.19,348.83,270.72,348.41,263.36Zm-13,40.28c-.24,1.44-2.19,3.73-3.36,4-2.07.41-5.14-.37-6.33-1.59-4.42-4.53-4.42-10.87-4.43-17L321,265.5c0-.21,0-.43,0-.64.18-1.6.33-3.2.47-4.8a103.67,103.67,0,0,1,1.55-11.81,5.19,5.19,0,0,1,2.18-3.46,5.48,5.48,0,0,1,3-.83,8.58,8.58,0,0,1,1.77.2c2.57.54,5.64,2,5.73,5.75.26,11.77.4,24.41.41,38.64A91.55,91.55,0,0,1,335.38,303.64Z" transform="translate(-27.25 -27.68)"/><path d="M113.05,299.32l-1,0c-2.89-.11-7.24-.27-8,5.71-.74,5.59-3.87,8.65-8.58,8.44-4-.18-7.07-4.15-7.36-9.42l-2.46-47.39a1.83,1.83,0,0,1,0-.33c0-.2,0-.41,0-.62,0-3.4.23-4,1.2-6.25l0-.11c1.64-3.91,5.56-4.09,7.75-3.85,3.24.35,5,1.87,5.43,4.77a5.8,5.8,0,0,0,3.52,4.34,11.7,11.7,0,0,0,6.93.07c1.63-.51,4-2.87,3.76-4.81a20.42,20.42,0,0,0-10.61-16.22c-6.33-3.51-13.48-3-20.7,1.44s-10.83,11.5-10.68,20.54c.12,8,.52,16.12,1.17,24.3q.24,3,.43,6c.52,7.42,1,15.09,2.69,22.45,2.64,11.77,7.72,16.38,18.12,16.38h.24c14.08-.1,22.4-6.8,22.82-18.39v-.25c.07-1.87.15-4-1.24-5.45A4.61,4.61,0,0,0,113.05,299.32Z" transform="translate(-27.25 -27.68)"/><path d="M354.87,309.87a3.76,3.76,0,0,0-3.07,2.23,4.7,4.7,0,0,0,.25,4.52,5.2,5.2,0,0,0,3.41,2.31,3.45,3.45,0,0,0,.64.05,3.9,3.9,0,0,0,2.43-.86,4.75,4.75,0,0,0,1.29-6A5,5,0,0,0,354.87,309.87Z" transform="translate(-27.25 -27.68)"/></svg>