<svg id="Layer_1" data-name="Layer 1" xmlns="http://www.w3.org/2000/svg" viewBox="0 0 346 316.91"><title>Thiesing Logo</title><path d="M159,303.45q-8.4-10.24-16.76-20.54l-35.86-44C100.76,232,95,225.17,89.53,218.07c-1.44-1.89-3-3.62-4.51-5.44q-12.3-15-24.63-30c-1.52-1.86-2.94-3.79-4.46-5.65-3.37-4.11-6.82-8.15-10.15-12.29-7.39-9.16-14.9-18.22-22.44-27.25a17.8,17.8,0,0,1-1.5-1.87c-1.77-2.85-4.34-3.83-7.63-3.71-4.51.15-9,0-13.65,0-.11-1.7-.26-3.24-.28-4.78-.07-4.47-.09-8.95-.14-13.43,0-3-.05-6.08-.14-9.11,0-1,.33-1.43,1.38-1.42q6.53.08,13.06,0c7.66,0,15.32-.14,23-.09,9.47.05,18.94.27,28.42.34a22.24,22.24,0,0,0,7-.57c1.06-.34,2.47.28,3.68.64.28.09.5.87.5,1.34,0,3.63,0,7.27,0,10.91,0,4.86-.06,9.73,0,14.6,0,1.13-.32,1.48-1.41,1.45-2.92-.06-5.84-.18-8.75,0-3.14.18-4.86,1.92-5.06,4.72a5.78,5.78,0,0,0,1.49,3.94c.86,1.11,1.78,2.16,2.66,3.25Q82.57,164,99.12,184.28q22.68,27.91,45.31,55.87c7.09,8.71,14.27,17.36,21.39,26,1.39,1.7,2.71,3.45,4.07,5.19s3.12,1.72,4.59.16c.76-.8,1.77-1.4,2.45-2.27,5-6.37,9.9-12.83,15-19.17,3.71-4.64,7.67-9.09,11.45-13.68,7.7-9.35,15.41-18.7,23-28.14,1.92-2.37,4.17-4.42,6-6.85s3.83-4.82,5.79-7.19c2.27-2.74,4.85-5.26,6.8-8.2,3-4.59,7.05-8.32,10.41-12.63,6.3-8.1,12.93-15.95,19.42-23.9a2.25,2.25,0,0,1,.31-.37c2.65-2.21,4.46-5.2,6.9-7.61a5.78,5.78,0,0,0,1.37-6.53,5.09,5.09,0,0,0-5.21-3.31c-2.86,0-5.73,0-8.59.06a6.55,6.55,0,0,1-.84-.06c0-3.18,0-6.16,0-9.15,0-6,.09-11.92.1-17.87,0-1,.22-1.32,1.26-1.34,4.71-.09,9.42-.31,14.14-.4,3,0,6,.08,8.94.09,1.47,0,3-.13,4.43-.14q12.66,0,25.31,0c7.35,0,14.7,0,22.05,0,.77,0,1.08.22,1.05,1-.1,2.95-.08,5.92-.29,8.86l0,3.67c0,2.15-.09,4.29-.11,6.44s-.07,4.1,0,6.14c.09,2.35,0,2.47-2.28,2.49-4.64,0-9.28.14-13.92.14a5.36,5.36,0,0,0-4.43,2.16q-6.08,7.5-12.25,14.93c-5.68,6.86-11.43,13.68-17.1,20.56q-22,26.75-44,53.53-19.26,23.43-38.53,46.84l-24.65,30-6.94,8.42c-1.83,2.24-3.65,4.48-5.49,6.71-2.19,2.66-4.92,2.74-7.22.16-1.7-1.9-3.38-3.84-5-5.83Z"/><path d="M44.05,48.24a3.19,3.19,0,0,1-.86-2v-.09c0-6.76,0-12.92,0-20.09,0-2.95,0-5.91-.07-8.86Q43,9.63,43,2.11c0-1.54,0-1.49,1.5-1.46a61.26,61.26,0,0,0,8-.08A31.86,31.86,0,0,1,59,.59a75.16,75.16,0,0,0,8.61-.2c1.44,0,2.88,0,4.32,0,5.23,0,10.46.06,15.7,0,2,0,4.06-.23,6.08-.23,2.59,0,5.18.17,7.77.17,2.19,0,4.38-.18,6.57-.23,1.31,0,2.62,0,3.94,0l14.13.14,17.11.14c5.95,0,11.9.08,17.86.07,4.27,0,8.54-.16,12.81-.14,8,0,15.91.26,23.86.2C207.53.54,217.27.23,227,.06c2,0,4,.11,6,.14s4.15,0,6.22,0c7.36,0,14.72,0,22.08,0,6,0,12-.18,18-.13,4.91.05,9.82.38,14.73.44,2.34,0,4.69-.28,7-.43a7.49,7.49,0,0,1,1.42,0,1.27,1.27,0,0,1,1.22,1.57c-.06.81-.16,1.61-.17,2.42q-.21,18.48-.37,37c0,2-.05,4.07-.09,6.1A2,2,0,0,1,301.08,49c-5.08.06-10.15.28-15.23.38-5.39.1-10.79.15-16.18.22-.87,0-1.26-.4-1.4-1.27a38.36,38.36,0,0,0-1.19-6.09c-1.7-5-5.33-8.56-9.89-10.93a17.47,17.47,0,0,0-6.83-1.52c-3.74-.25-7.51-.1-11.26-.1l-41.28,0c-2.07,0-4.16-.15-6.23,0-3.2.19-4,1.11-4.08,4.36q-.07,3.54-.08,7.07,0,9.24,0,18.48c0,.93-.13,1.42-1.28,1.08a46.9,46.9,0,0,0-22.88-.81c-1.51.31-3,.7-4.64,1.08,0-.57-.12-1.08-.12-1.58,0-5.95,0-11.91,0-17.87,0-2.83,0-5.67-.09-8.5-.07-2.31-1-3.24-3.36-3.27-4.16-.05-8.31,0-12.47-.05-5.76,0-11.51-.14-17.27-.14q-12.59,0-25.18.08a42.09,42.09,0,0,0-5.15.23C86.45,31,78.69,38.36,78,47.55c0,.39-.13.79-.15,1.18-.06.87-.54,1.14-1.36,1.12-10-.14-20-.26-30-.42a1.15,1.15,0,0,1-.78-.35Z"/><path d="M187,205.42a3.81,3.81,0,0,0,2,3.64,46,46,0,0,0,21.63,6.67c.53,0,1,.13,1.73.21a7.38,7.38,0,0,1-.4.69c-4,4.94-8.1,9.86-12.12,14.83a2.71,2.71,0,0,1-2.34,1.12c-6.16,0-12.32,0-18.47,0-1.72,0-3.44.08-5.16.07-8.85,0-17.7,0-26.55-.15a3,3,0,0,1-2.08-.85c-4.13-5-8.18-10-12.24-15.08a2.87,2.87,0,0,1-.21-.45,4.55,4.55,0,0,1,.86-.25,49.3,49.3,0,0,0,21.53-6.08,5.19,5.19,0,0,0,3-5.59l.08-27.64c.05-4.38-.14-8.77-.21-13.16,0-2.71,0-5.42-.07-8.13,0-1.4.27-1.69,1.71-1.42,2.62.49,5.23,1.18,7.88,1.44,6.24.59,12.46.45,18.5-1.53a3.13,3.13,0,0,1,.74-.11c.77,3.24.33,6.41.31,9.57Z"/><path d="M193.37,85.59c-12.46-10.66-30-10.22-42.16,1.23a26.77,26.77,0,0,0-8.46,19.62c-.18,11.43,5,20.18,14.54,26.16a28.6,28.6,0,0,0,15.16,4.2,30.22,30.22,0,0,0,14.5-3.43,37.82,37.82,0,0,0,6.65-4.87,6.61,6.61,0,0,1,9.29.89,32.88,32.88,0,0,0,4.17,3.6,31.33,31.33,0,0,1-8.95,8.61c-1.75,1-3.41,2.27-5.24,3.14l-8.31,3.37c-5.26,2.16-17.46,2.26-26.78-1a40.55,40.55,0,0,1-18.58-12.84c-3.81-4.77-7-10-8.31-16A46.89,46.89,0,0,1,129.78,102c1.41-11.29,8.71-23.3,18.16-29.52a48.93,48.93,0,0,1,22.25-7.67,36.7,36.7,0,0,1,16.48,2.15c1.61.58,3.27,1.06,4.86,1.71a16.06,16.06,0,0,1,3.13,1.7c2.07,1.46,4.22.65,4.61-1.86a22.81,22.81,0,0,0,.16-2.75c0-.79.39-1.18,1.18-1.18l10.08,0c.89,0,1,.5,1,1.24-.08,3.68-.33,7.37-.13,11,.12,2.32-.62,3.4-2.68,4.47a38.61,38.61,0,0,0-6.69,5c-1.85,1.56-4.6,2.64-6.69,1.35Z"/><path d="M187.24,106.16c0,5.71-.08,11.43,0,17.14.06,3,.07,3.3-2.72,4.68a23.19,23.19,0,0,1-9.94,2.83c-5.4.08-10.72-.33-15.24-3.78a2.66,2.66,0,0,1-1-1.71c-.15-2.66-.21-5.34-.18-8,.07-7.75.21-15.5.31-23.26,0-1.43-.17-2.88-.06-4.3a2.62,2.62,0,0,1,1-1.73c4.67-3.31,10-4.41,15.63-4.48a15.16,15.16,0,0,1,7.58,1.95c1.33.72,2.68,1.43,3.95,2.26a2,2,0,0,1,.85,1.38c-.08,5.68-.23,11.35-.37,17Z"/><path d="M262.35,125.49c.54,2.8-3.14,6.26-6.16,6.25s-6.07-2.92-5.93-5.79c.21-4.54,2.48-6.21,6.45-6.47C259.81,119.28,262.29,122,262.35,125.49Z"/><path d="M248.47,101.85a.93.93,0,0,1,0-.24c-.64-5.06-3.33-9-6.9-12.4a23.33,23.33,0,0,0-14.88-6.67c-9.7-.72-21.8,5.11-25.84,16.51a24.1,24.1,0,0,0,22.06,32.64c2.88.14,8.95-.8,10.8-1.65a28.11,28.11,0,0,0,8.61-6,24.64,24.64,0,0,0,5.73-10C249.22,110.15,250,106,248.47,101.85Zm-24.52,17A11.94,11.94,0,0,1,212.43,107c.09-6.15,5.62-11.15,12.21-11.11,4.84,0,11.5,4,11.31,11.52C236.56,113.12,230.33,119.14,224,118.82Z"/></svg>