<?xml version="1.0" encoding="utf-8"?>
<!-- Generator: Adobe Illustrator 23.0.3, SVG Export Plug-In . SVG Version: 6.00 Build 0)  -->
<svg version="1.1" id="Layer_1" xmlns="http://www.w3.org/2000/svg" xmlns:xlink="http://www.w3.org/1999/xlink" x="0px" y="0px"
	 viewBox="0 0 346 316.9" style="enable-background:new 0 0 346 316.9;" xml:space="preserve">
<style type="text/css">
	.st0{fill:#FFFFFF;}
</style>
<title>Thiesing Logo</title>
<path class="st0" d="M159,303.5c-5.6-6.8-11.2-13.7-16.8-20.5l-35.9-44c-5.6-6.9-11.4-13.7-16.9-20.8c-1.4-1.9-3-3.6-4.5-5.4
	c-8.2-10-16.4-20-24.6-30c-1.5-1.9-2.9-3.8-4.5-5.6c-3.4-4.1-6.8-8.1-10.2-12.3c-7.4-9.2-14.9-18.2-22.4-27.3
	c-0.5-0.6-1-1.2-1.5-1.9c-1.8-2.9-4.3-3.8-7.6-3.7c-4.5,0.1-9,0-13.6,0c-0.1-1.7-0.3-3.2-0.3-4.8c-0.1-4.5-0.1-8.9-0.1-13.4
	c0-3,0-6.1-0.1-9.1c0-1,0.3-1.4,1.4-1.4c4.4,0.1,8.7,0.1,13.1,0c7.7,0,15.3-0.1,23-0.1c9.5,0.1,18.9,0.3,28.4,0.3
	c2.3,0.2,4.7,0,7-0.6c1.1-0.3,2.5,0.3,3.7,0.6c0.3,0.1,0.5,0.9,0.5,1.3c0,3.6,0,7.3,0,10.9c0,4.9-0.1,9.7,0,14.6
	c0,1.1-0.3,1.5-1.4,1.4c-2.9-0.1-5.8-0.2-8.8,0c-3.1,0.2-4.9,1.9-5.1,4.7c0,1.5,0.5,2.9,1.5,3.9c0.9,1.1,1.8,2.2,2.7,3.3
	c11.1,13.6,22.1,27.1,33.2,40.6c15.1,18.6,30.2,37.2,45.3,55.9c7.1,8.7,14.3,17.4,21.4,26c1.4,1.7,2.7,3.5,4.1,5.2s3.1,1.7,4.6,0.2
	c0.8-0.8,1.8-1.4,2.4-2.3c5-6.4,9.9-12.8,15-19.2c3.7-4.6,7.7-9.1,11.4-13.7c7.7-9.4,15.4-18.7,23-28.1c1.9-2.4,4.2-4.4,6-6.9
	s3.8-4.8,5.8-7.2c2.3-2.7,4.9-5.3,6.8-8.2c3-4.6,7.1-8.3,10.4-12.6c6.3-8.1,12.9-15.9,19.4-23.9c0.1-0.1,0.2-0.3,0.3-0.4
	c2.6-2.2,4.5-5.2,6.9-7.6c1.8-1.7,2.3-4.3,1.4-6.5c-0.8-2.2-2.9-3.5-5.2-3.3c-2.9,0-5.7,0-8.6,0.1c-0.3,0-0.6,0-0.8-0.1
	c0-3.2,0-6.2,0-9.2c0-6,0.1-11.9,0.1-17.9c0-1,0.2-1.3,1.3-1.3c4.7-0.1,9.4-0.3,14.1-0.4c3,0,6,0.1,8.9,0.1c1.5,0,3-0.1,4.4-0.1
	c8.4,0,16.9,0,25.3,0c7.4,0,14.7,0,22,0c0.8,0,1.1,0.2,1,1c-0.1,2.9-0.1,5.9-0.3,8.9v3.7c0,2.2-0.1,4.3-0.1,6.4s-0.1,4.1,0,6.1
	c0.1,2.4,0,2.5-2.3,2.5c-4.6,0-9.3,0.1-13.9,0.1c-1.7,0-3.4,0.8-4.4,2.2c-4.1,5-8.1,10-12.3,14.9c-5.7,6.9-11.4,13.7-17.1,20.6
	c-14.7,17.8-29.3,35.7-44,53.5c-12.8,15.6-25.7,31.2-38.5,46.8l-24.6,30l-6.9,8.4c-1.8,2.2-3.6,4.5-5.5,6.7
	c-2.2,2.7-4.9,2.7-7.2,0.2c-1.7-1.9-3.4-3.8-5-5.8L159,303.5z"/>
<path class="st0" d="M44,48.2c-0.5-0.5-0.8-1.3-0.9-2v-0.1c0-6.8,0-12.9,0-20.1c0-3,0-5.9-0.1-8.9C43,12.2,43,7.1,43,2.1
	c0-1.5,0-1.5,1.5-1.5c2.7,0.1,5.3,0.1,8-0.1c2.2-0.2,4.3-0.2,6.5,0c2.9,0.1,5.7,0,8.6-0.2c1.4,0,2.9,0,4.3,0c5.2,0,10.5,0.1,15.7,0
	c2,0,4.1-0.2,6.1-0.2c2.6,0,5.2,0.2,7.8,0.2c2.2,0,4.4-0.2,6.6-0.2c1.3,0,2.6,0,3.9,0l14.1,0.1l17.1,0.1c5.9,0,11.9,0.1,17.9,0.1
	c4.3,0,8.5-0.2,12.8-0.1c8,0,15.9,0.3,23.9,0.2c9.8,0,19.5-0.3,29.2-0.4c2,0,4,0.1,6,0.1s4.1,0,6.2,0c7.4,0,14.7,0,22.1,0
	c6,0,12-0.2,18-0.1c4.9,0,9.8,0.4,14.7,0.4c2.3,0,4.7-0.3,7-0.4c0.5,0,0.9,0,1.4,0c0.7,0,1.3,0.6,1.3,1.3c0,0.1,0,0.2,0,0.3
	c-0.1,0.8-0.2,1.6-0.2,2.4c-0.1,12.3-0.3,24.7-0.4,37c0,2,0,4.1-0.1,6.1c-0.1,1-0.9,1.8-2,1.8c-5.1,0.1-10.1,0.3-15.2,0.4
	c-5.4,0.1-10.8,0.2-16.2,0.2c-0.9,0-1.3-0.4-1.4-1.3c-0.2-2.1-0.6-4.1-1.2-6.1c-1.7-5-5.3-8.6-9.9-10.9c-2.2-1-4.5-1.5-6.8-1.5
	c-3.7-0.3-7.5-0.1-11.3-0.1h-41.3c-2.1,0-4.2-0.1-6.2,0c-3.2,0.2-4,1.1-4.1,4.4c0,2.4-0.1,4.7-0.1,7.1c0,6.2,0,12.3,0,18.5
	c0,0.9-0.1,1.4-1.3,1.1c-7.4-2.2-15.3-2.4-22.9-0.8c-1.5,0.3-3,0.7-4.6,1.1c0-0.6-0.1-1.1-0.1-1.6c0-6,0-11.9,0-17.9
	c0-2.8,0-5.7-0.1-8.5c-0.1-2.3-1-3.2-3.4-3.3c-4.2,0-8.3,0-12.5,0c-5.8,0-11.5-0.1-17.3-0.1c-8.4,0-16.8,0-25.2,0.1
	c-1.7,0-3.4,0-5.2,0.2c-8.5,1.1-16.3,8.5-17,17.7c0,0.4-0.1,0.8-0.2,1.2c-0.1,0.9-0.5,1.1-1.4,1.1c-10-0.1-20-0.3-30-0.4
	c-0.3,0-0.6-0.1-0.8-0.3L44,48.2z"/>
<path class="st0" d="M187,205.4c-0.1,1.5,0.7,2.9,2,3.6c6.5,4,14,6.3,21.6,6.7c0.5,0,1,0.1,1.7,0.2c-0.1,0.2-0.3,0.5-0.4,0.7
	c-4,4.9-8.1,9.9-12.1,14.8c-0.5,0.7-1.4,1.2-2.3,1.1c-6.2,0-12.3,0-18.5,0c-1.7,0-3.4,0.1-5.2,0.1c-8.9,0-17.7,0-26.6-0.1
	c-0.8,0-1.5-0.3-2.1-0.9c-4.1-5-8.2-10-12.2-15.1c-0.1-0.1-0.2-0.3-0.2-0.4c0.3-0.1,0.6-0.2,0.9-0.3c7.5-0.4,14.9-2.4,21.5-6.1
	c2.2-1,3.4-3.3,3-5.6l0.1-27.6c0.1-4.4-0.1-8.8-0.2-13.2c0-2.7,0-5.4-0.1-8.1c0-1.4,0.3-1.7,1.7-1.4c2.6,0.5,5.2,1.2,7.9,1.4
	c6.2,0.6,12.5,0.4,18.5-1.5c0.2-0.1,0.5-0.1,0.7-0.1c0.8,3.2,0.3,6.4,0.3,9.6L187,205.4z"/>
<path class="st0" d="M193.4,85.6c-12.5-10.7-30-10.2-42.2,1.2c-5.4,5.1-8.5,12.2-8.5,19.6c-0.2,11.4,5,20.2,14.5,26.2
	c4.6,2.8,9.8,4.2,15.2,4.2c5,0.1,10-1.1,14.5-3.4c2.4-1.4,4.6-3,6.6-4.9c2.8-2.3,7-1.9,9.3,0.9c1.3,1.3,2.7,2.5,4.2,3.6
	c-2.4,3.4-5.4,6.4-8.9,8.6c-1.8,1-3.4,2.3-5.2,3.1l-8.3,3.4c-5.3,2.2-17.5,2.3-26.8-1c-7.3-2.4-13.7-6.9-18.6-12.8
	c-3.8-4.8-7-10-8.3-16c-1.3-5.3-1.7-10.8-1.1-16.3c1.4-11.3,8.7-23.3,18.2-29.5c6.7-4.3,14.3-7,22.3-7.7c5.6-0.6,11.2,0.2,16.5,2.2
	c1.6,0.6,3.3,1.1,4.9,1.7c1.1,0.4,2.2,1,3.1,1.7c2.1,1.5,4.2,0.7,4.6-1.9c0.1-0.9,0.2-1.8,0.2-2.8c0-0.8,0.4-1.2,1.2-1.2h10.1
	c0.9,0,1,0.5,1,1.2c-0.1,3.7-0.3,7.4-0.1,11c0.1,2.3-0.6,3.4-2.7,4.5c-2.4,1.4-4.6,3.1-6.7,5c-1.9,1.6-4.6,2.6-6.7,1.3L193.4,85.6z"
	/>
<path class="st0" d="M187.2,106.2c0,5.7-0.1,11.4,0,17.1c0.1,3,0.1,3.3-2.7,4.7c-3.1,1.7-6.5,2.6-9.9,2.8
	c-5.4,0.1-10.7-0.3-15.2-3.8c-0.5-0.4-0.9-1-1-1.7c-0.1-2.7-0.2-5.3-0.2-8c0.1-7.8,0.2-15.5,0.3-23.3c0-1.4-0.2-2.9-0.1-4.3
	c0.1-0.7,0.5-1.3,1-1.7c4.7-3.3,10-4.4,15.6-4.5c2.7,0,5.3,0.6,7.6,1.9c1.3,0.7,2.7,1.4,3.9,2.3c0.5,0.3,0.8,0.8,0.9,1.4
	c-0.1,5.7-0.2,11.3-0.4,17L187.2,106.2z"/>
<path class="st0" d="M262.4,125.5c0.5,2.8-3.1,6.3-6.2,6.2s-6.1-2.9-5.9-5.8c0.2-4.5,2.5-6.2,6.5-6.5
	C259.8,119.3,262.3,122,262.4,125.5z"/>
<path class="st0" d="M248.5,101.8c0-0.1,0-0.2,0-0.2c-0.6-5.1-3.3-9-6.9-12.4c-4-3.9-9.3-6.3-14.9-6.7c-9.7-0.7-21.8,5.1-25.8,16.5
	c-4.7,12.4,1.5,26.4,14,31.1c2.6,1,5.3,1.5,8.1,1.6c2.9,0.1,8.9-0.8,10.8-1.6c3.2-1.4,6.1-3.5,8.6-6c2.7-2.8,4.6-6.3,5.7-10
	C249.2,110.2,250,106,248.5,101.8z M223.9,118.8c-6.4-0.2-11.5-5.5-11.5-11.8c0.1-6.2,5.6-11.2,12.2-11.1c4.8,0,11.5,4,11.3,11.5
	C236.6,113.1,230.3,119.1,223.9,118.8L223.9,118.8z"/>
</svg>
